<svg width="1901" height="1080" viewBox="0 0 1901 1080" fill="none" xmlns="http://www.w3.org/2000/svg">
<path d="M-1490.69 -265.295L-1390.91 -223.965L-1540.01 135.992L-1639.79 94.662L-1490.69 -265.295Z" fill="url(#paint0_linear_308_151)"/>
<path d="M-1518.38 -480.67L-1418.6 -439.34L-1639.79 94.662L-1739.57 53.3322L-1518.38 -480.67Z" fill="url(#paint1_linear_308_151)"/>
<path d="M-1649.69 -445.855L-1549.92 -404.525L-1739.57 53.3322L-1839.35 12.0024L-1649.69 -445.855Z" fill="url(#paint2_linear_308_151)"/>
<path d="M-1191.35 -141.306L-1091.57 -99.9759L-1240.67 259.981L-1340.45 218.651L-1191.35 -141.306Z" fill="url(#paint3_linear_308_151)"/>
<path d="M-1219.04 -356.681L-1119.26 -315.351L-1340.45 218.651L-1440.23 177.322L-1219.04 -356.681Z" fill="url(#paint4_linear_308_151)"/>
<path d="M-1350.36 -321.866L-1250.58 -280.536L-1440.23 177.322L-1540.01 135.992L-1350.36 -321.866Z" fill="url(#paint5_linear_308_151)"/>
<path d="M-892.015 -17.3163L-792.236 24.0135L-941.335 383.971L-1041.11 342.641L-892.015 -17.3163Z" fill="url(#paint6_linear_308_151)"/>
<path d="M-919.702 -232.691L-819.923 -191.362L-1041.11 342.641L-1140.89 301.311L-919.702 -232.691Z" fill="url(#paint7_linear_308_151)"/>
<path d="M-1051.02 -197.876L-951.242 -156.547L-1140.89 301.311L-1240.67 259.981L-1051.02 -197.876Z" fill="url(#paint8_linear_308_151)"/>
<path d="M-592.678 106.673L-492.899 148.003L-641.998 507.96L-741.777 466.63L-592.678 106.673Z" fill="url(#paint9_linear_308_151)"/>
<path d="M-620.365 -108.702L-520.586 -67.3721L-741.777 466.63L-841.556 425.3L-620.365 -108.702Z" fill="url(#paint10_linear_308_151)"/>
<path d="M-751.684 -73.8869L-651.905 -32.5571L-841.556 425.3L-941.335 383.971L-751.684 -73.8869Z" fill="url(#paint11_linear_308_151)"/>
<path d="M-293.341 230.663L-193.562 271.992L-342.661 631.95L-442.44 590.62L-293.341 230.663Z" fill="url(#paint12_linear_308_151)"/>
<path d="M-321.028 15.2875L-221.249 56.6173L-442.44 590.62L-542.219 549.29L-321.028 15.2875Z" fill="url(#paint13_linear_308_151)"/>
<path d="M-452.347 50.1025L-352.568 91.4323L-542.219 549.29L-641.998 507.96L-452.347 50.1025Z" fill="url(#paint14_linear_308_151)"/>
<path d="M5.9961 354.652L105.775 395.982L-43.324 755.939L-143.103 714.609L5.9961 354.652Z" fill="url(#paint15_linear_308_151)"/>
<path d="M-21.691 139.277L78.088 180.607L-143.103 714.609L-242.882 673.279L-21.691 139.277Z" fill="url(#paint16_linear_308_151)"/>
<path d="M-153.01 174.092L-53.2312 215.422L-242.882 673.279L-342.661 631.95L-153.01 174.092Z" fill="url(#paint17_linear_308_151)"/>
<path d="M304.409 478.259L404.188 519.589L255.089 879.546L155.31 838.216L304.409 478.259Z" fill="url(#paint18_linear_308_151)"/>
<path d="M276.722 262.884L376.501 304.214L155.31 838.216L55.5311 796.886L276.722 262.884Z" fill="url(#paint19_linear_308_151)"/>
<path d="M145.403 297.699L245.182 339.028L55.5311 796.886L-44.2479 755.556L145.403 297.699Z" fill="url(#paint20_linear_308_151)"/>
<path d="M603.746 602.248L703.525 643.578L554.426 1003.54L454.647 962.205L603.746 602.248Z" fill="url(#paint21_linear_308_151)"/>
<path d="M576.059 386.873L675.838 428.203L454.647 962.205L354.868 920.875L576.059 386.873Z" fill="url(#paint22_linear_308_151)"/>
<path d="M444.74 421.688L544.519 463.018L354.868 920.875L255.089 879.546L444.74 421.688Z" fill="url(#paint23_linear_308_151)"/>
<path d="M903.083 726.238L1002.86 767.567L853.763 1127.52L753.984 1086.19L903.083 726.238Z" fill="url(#paint24_linear_308_151)"/>
<path d="M875.396 510.863L975.175 552.192L753.984 1086.19L654.205 1044.86L875.396 510.863Z" fill="url(#paint25_linear_308_151)"/>
<path d="M744.077 545.678L843.856 587.007L654.205 1044.86L554.426 1003.54L744.077 545.678Z" fill="url(#paint26_linear_308_151)"/>
<path d="M1202.42 850.227L1302.2 891.557L1153.1 1251.51L1053.32 1210.18L1202.42 850.227Z" fill="url(#paint27_linear_308_151)"/>
<path d="M1174.73 634.852L1274.51 676.182L1053.32 1210.18L953.542 1168.85L1174.73 634.852Z" fill="url(#paint28_linear_308_151)"/>
<path d="M1043.41 669.667L1143.19 710.997L953.542 1168.85L853.763 1127.52L1043.41 669.667Z" fill="url(#paint29_linear_308_151)"/>
<path d="M1501.76 974.216L1601.54 1015.55L1452.44 1375.5L1352.66 1334.17L1501.76 974.216Z" fill="url(#paint30_linear_308_151)"/>
<path d="M1474.07 758.841L1573.85 800.171L1352.66 1334.17L1252.88 1292.84L1474.07 758.841Z" fill="url(#paint31_linear_308_151)"/>
<path d="M1342.75 793.656L1442.53 834.986L1252.88 1292.84L1153.1 1251.51L1342.75 793.656Z" fill="url(#paint32_linear_308_151)"/>
<path d="M1801.09 1098.21L1900.87 1139.54L1751.77 1499.49L1651.99 1458.16L1801.09 1098.21Z" fill="url(#paint33_linear_308_151)"/>
<path d="M1773.41 882.831L1873.19 924.161L1651.99 1458.16L1552.22 1416.83L1773.41 882.831Z" fill="url(#paint34_linear_308_151)"/>
<path d="M1642.09 917.646L1741.87 958.976L1552.22 1416.83L1452.44 1375.5L1642.09 917.646Z" fill="url(#paint35_linear_308_151)"/>
<path d="M-1635.34 83.9313L-1535.56 125.261L-1684.66 485.218L-1784.44 443.888L-1635.34 83.9313Z" fill="url(#paint36_linear_308_151)"/>
<path d="M-1663.03 -131.444L-1563.25 -90.1139L-1784.44 443.888L-1884.22 402.559L-1663.03 -131.444Z" fill="url(#paint37_linear_308_151)"/>
<path d="M-1794.35 -96.6288L-1694.57 -55.299L-1884.22 402.559L-1984 361.229L-1794.35 -96.6288Z" fill="url(#paint38_linear_308_151)"/>
<path d="M-1336.01 207.921L-1236.23 249.251L-1385.33 609.208L-1485.11 567.878L-1336.01 207.921Z" fill="url(#paint39_linear_308_151)"/>
<path d="M-1363.69 -7.45431L-1263.91 33.8755L-1485.11 567.878L-1584.88 526.548L-1363.69 -7.45431Z" fill="url(#paint40_linear_308_151)"/>
<path d="M-1495.01 27.3607L-1395.23 68.6905L-1584.88 526.548L-1684.66 485.218L-1495.01 27.3607Z" fill="url(#paint41_linear_308_151)"/>
<path d="M-1036.67 331.91L-936.89 373.24L-1085.99 733.197L-1185.77 691.867L-1036.67 331.91Z" fill="url(#paint42_linear_308_151)"/>
<path d="M-1064.36 116.535L-964.577 157.865L-1185.77 691.867L-1285.55 650.537L-1064.36 116.535Z" fill="url(#paint43_linear_308_151)"/>
<path d="M-1195.68 151.35L-1095.9 192.68L-1285.55 650.537L-1385.33 609.208L-1195.68 151.35Z" fill="url(#paint44_linear_308_151)"/>
<path d="M-737.332 455.9L-637.553 497.229L-786.652 857.187L-886.431 815.857L-737.332 455.9Z" fill="url(#paint45_linear_308_151)"/>
<path d="M-765.019 240.525L-665.24 281.854L-886.431 815.857L-986.21 774.527L-765.019 240.525Z" fill="url(#paint46_linear_308_151)"/>
<path d="M-896.338 275.34L-796.559 316.669L-986.21 774.527L-1085.99 733.197L-896.338 275.34Z" fill="url(#paint47_linear_308_151)"/>
<path d="M-437.995 579.889L-338.216 621.219L-487.315 981.176L-587.094 939.846L-437.995 579.889Z" fill="url(#paint48_linear_308_151)"/>
<path d="M-465.682 364.514L-365.903 405.844L-587.094 939.846L-686.873 898.516L-465.682 364.514Z" fill="url(#paint49_linear_308_151)"/>
<path d="M-597.001 399.329L-497.222 440.659L-686.873 898.516L-786.652 857.187L-597.001 399.329Z" fill="url(#paint50_linear_308_151)"/>
<path d="M-138.658 703.878L-38.8793 745.208L-187.978 1105.17L-287.757 1063.84L-138.658 703.878Z" fill="url(#paint51_linear_308_151)"/>
<path d="M-166.345 488.503L-66.5664 529.833L-287.757 1063.84L-387.536 1022.51L-166.345 488.503Z" fill="url(#paint52_linear_308_151)"/>
<path d="M-297.665 523.318L-197.886 564.648L-387.536 1022.51L-487.315 981.176L-297.665 523.318Z" fill="url(#paint53_linear_308_151)"/>
<path d="M159.755 827.485L259.534 868.815L110.435 1228.77L10.6557 1187.44L159.755 827.485Z" fill="url(#paint54_linear_308_151)"/>
<path d="M132.068 612.11L231.847 653.44L10.6557 1187.44L-89.1233 1146.11L132.068 612.11Z" fill="url(#paint55_linear_308_151)"/>
<path d="M0.748556 646.925L100.528 688.255L-89.1233 1146.11L-188.902 1104.78L0.748556 646.925Z" fill="url(#paint56_linear_308_151)"/>
<path d="M459.092 951.475L558.871 992.804L409.772 1352.76L309.993 1311.43L459.092 951.475Z" fill="url(#paint57_linear_308_151)"/>
<path d="M431.405 736.1L531.184 777.429L309.993 1311.43L210.214 1270.1L431.405 736.1Z" fill="url(#paint58_linear_308_151)"/>
<path d="M300.086 770.915L399.865 812.244L210.214 1270.1L110.435 1228.77L300.086 770.915Z" fill="url(#paint59_linear_308_151)"/>
<path d="M758.429 1075.46L858.208 1116.79L709.109 1476.75L609.33 1435.42L758.429 1075.46Z" fill="url(#paint60_linear_308_151)"/>
<path d="M730.742 860.089L830.521 901.419L609.33 1435.42L509.551 1394.09L730.742 860.089Z" fill="url(#paint61_linear_308_151)"/>
<path d="M599.422 894.904L699.201 936.234L509.551 1394.09L409.772 1352.76L599.422 894.904Z" fill="url(#paint62_linear_308_151)"/>
<path d="M1057.77 1199.45L1157.54 1240.78L1008.45 1600.74L908.667 1559.41L1057.77 1199.45Z" fill="url(#paint63_linear_308_151)"/>
<path d="M1030.08 984.078L1129.86 1025.41L908.667 1559.41L808.888 1518.08L1030.08 984.078Z" fill="url(#paint64_linear_308_151)"/>
<path d="M898.759 1018.89L998.538 1060.22L808.888 1518.08L709.109 1476.75L898.759 1018.89Z" fill="url(#paint65_linear_308_151)"/>
<path d="M1357.1 1323.44L1456.88 1364.77L1307.78 1724.73L1208 1683.4L1357.1 1323.44Z" fill="url(#paint66_linear_308_151)"/>
<path d="M1329.42 1108.07L1429.19 1149.4L1208 1683.4L1108.22 1642.07L1329.42 1108.07Z" fill="url(#paint67_linear_308_151)"/>
<path d="M1198.1 1142.88L1297.88 1184.21L1108.22 1642.07L1008.45 1600.74L1198.1 1142.88Z" fill="url(#paint68_linear_308_151)"/>
<path d="M1656.44 1447.43L1756.22 1488.76L1607.12 1848.72L1507.34 1807.39L1656.44 1447.43Z" fill="url(#paint69_linear_308_151)"/>
<path d="M1628.75 1232.06L1728.53 1273.39L1507.34 1807.39L1407.56 1766.06L1628.75 1232.06Z" fill="url(#paint70_linear_308_151)"/>
<path d="M1497.43 1266.87L1597.21 1308.2L1407.56 1766.06L1307.78 1724.73L1497.43 1266.87Z" fill="url(#paint71_linear_308_151)"/>
<defs>
<linearGradient id="paint0_linear_308_151" x1="578.5" y1="1217.5" x2="926.5" y2="531" gradientUnits="userSpaceOnUse">
<stop stop-color="#F50035"/>
<stop offset="1" stop-color="#FF00B3"/>
</linearGradient>
<linearGradient id="paint1_linear_308_151" x1="578.5" y1="1217.5" x2="926.5" y2="531" gradientUnits="userSpaceOnUse">
<stop stop-color="#F50035"/>
<stop offset="1" stop-color="#FF00B3"/>
</linearGradient>
<linearGradient id="paint2_linear_308_151" x1="578.5" y1="1217.5" x2="926.5" y2="531" gradientUnits="userSpaceOnUse">
<stop stop-color="#F50035"/>
<stop offset="1" stop-color="#FF00B3"/>
</linearGradient>
<linearGradient id="paint3_linear_308_151" x1="578.5" y1="1217.5" x2="926.5" y2="531" gradientUnits="userSpaceOnUse">
<stop stop-color="#F50035"/>
<stop offset="1" stop-color="#FF00B3"/>
</linearGradient>
<linearGradient id="paint4_linear_308_151" x1="578.5" y1="1217.5" x2="926.5" y2="531" gradientUnits="userSpaceOnUse">
<stop stop-color="#F50035"/>
<stop offset="1" stop-color="#FF00B3"/>
</linearGradient>
<linearGradient id="paint5_linear_308_151" x1="578.5" y1="1217.5" x2="926.5" y2="531" gradientUnits="userSpaceOnUse">
<stop stop-color="#F50035"/>
<stop offset="1" stop-color="#FF00B3"/>
</linearGradient>
<linearGradient id="paint6_linear_308_151" x1="578.5" y1="1217.5" x2="926.5" y2="531" gradientUnits="userSpaceOnUse">
<stop stop-color="#F50035"/>
<stop offset="1" stop-color="#FF00B3"/>
</linearGradient>
<linearGradient id="paint7_linear_308_151" x1="578.5" y1="1217.5" x2="926.5" y2="531" gradientUnits="userSpaceOnUse">
<stop stop-color="#F50035"/>
<stop offset="1" stop-color="#FF00B3"/>
</linearGradient>
<linearGradient id="paint8_linear_308_151" x1="578.5" y1="1217.5" x2="926.5" y2="531" gradientUnits="userSpaceOnUse">
<stop stop-color="#F50035"/>
<stop offset="1" stop-color="#FF00B3"/>
</linearGradient>
<linearGradient id="paint9_linear_308_151" x1="578.5" y1="1217.5" x2="926.5" y2="531" gradientUnits="userSpaceOnUse">
<stop stop-color="#F50035"/>
<stop offset="1" stop-color="#FF00B3"/>
</linearGradient>
<linearGradient id="paint10_linear_308_151" x1="578.5" y1="1217.5" x2="926.5" y2="531" gradientUnits="userSpaceOnUse">
<stop stop-color="#F50035"/>
<stop offset="1" stop-color="#FF00B3"/>
</linearGradient>
<linearGradient id="paint11_linear_308_151" x1="578.5" y1="1217.5" x2="926.5" y2="531" gradientUnits="userSpaceOnUse">
<stop stop-color="#F50035"/>
<stop offset="1" stop-color="#FF00B3"/>
</linearGradient>
<linearGradient id="paint12_linear_308_151" x1="578.5" y1="1217.5" x2="926.5" y2="531" gradientUnits="userSpaceOnUse">
<stop stop-color="#F50035"/>
<stop offset="1" stop-color="#FF00B3"/>
</linearGradient>
<linearGradient id="paint13_linear_308_151" x1="578.5" y1="1217.5" x2="926.5" y2="531" gradientUnits="userSpaceOnUse">
<stop stop-color="#F50035"/>
<stop offset="1" stop-color="#FF00B3"/>
</linearGradient>
<linearGradient id="paint14_linear_308_151" x1="578.5" y1="1217.5" x2="926.5" y2="531" gradientUnits="userSpaceOnUse">
<stop stop-color="#F50035"/>
<stop offset="1" stop-color="#FF00B3"/>
</linearGradient>
<linearGradient id="paint15_linear_308_151" x1="578.5" y1="1217.5" x2="926.5" y2="531" gradientUnits="userSpaceOnUse">
<stop stop-color="#F50035"/>
<stop offset="1" stop-color="#FF00B3"/>
</linearGradient>
<linearGradient id="paint16_linear_308_151" x1="578.5" y1="1217.5" x2="926.5" y2="531" gradientUnits="userSpaceOnUse">
<stop stop-color="#F50035"/>
<stop offset="1" stop-color="#FF00B3"/>
</linearGradient>
<linearGradient id="paint17_linear_308_151" x1="578.5" y1="1217.5" x2="926.5" y2="531" gradientUnits="userSpaceOnUse">
<stop stop-color="#F50035"/>
<stop offset="1" stop-color="#FF00B3"/>
</linearGradient>
<linearGradient id="paint18_linear_308_151" x1="578.5" y1="1217.5" x2="926.5" y2="531" gradientUnits="userSpaceOnUse">
<stop stop-color="#F50035"/>
<stop offset="1" stop-color="#FF00B3"/>
</linearGradient>
<linearGradient id="paint19_linear_308_151" x1="578.5" y1="1217.5" x2="926.5" y2="531" gradientUnits="userSpaceOnUse">
<stop stop-color="#F50035"/>
<stop offset="1" stop-color="#FF00B3"/>
</linearGradient>
<linearGradient id="paint20_linear_308_151" x1="578.5" y1="1217.5" x2="926.5" y2="531" gradientUnits="userSpaceOnUse">
<stop stop-color="#F50035"/>
<stop offset="1" stop-color="#FF00B3"/>
</linearGradient>
<linearGradient id="paint21_linear_308_151" x1="578.5" y1="1217.5" x2="926.5" y2="531" gradientUnits="userSpaceOnUse">
<stop stop-color="#F50035"/>
<stop offset="1" stop-color="#FF00B3"/>
</linearGradient>
<linearGradient id="paint22_linear_308_151" x1="578.5" y1="1217.5" x2="926.5" y2="531" gradientUnits="userSpaceOnUse">
<stop stop-color="#F50035"/>
<stop offset="1" stop-color="#FF00B3"/>
</linearGradient>
<linearGradient id="paint23_linear_308_151" x1="578.5" y1="1217.5" x2="926.5" y2="531" gradientUnits="userSpaceOnUse">
<stop stop-color="#F50035"/>
<stop offset="1" stop-color="#FF00B3"/>
</linearGradient>
<linearGradient id="paint24_linear_308_151" x1="578.5" y1="1217.5" x2="926.5" y2="531" gradientUnits="userSpaceOnUse">
<stop stop-color="#F50035"/>
<stop offset="1" stop-color="#FF00B3"/>
</linearGradient>
<linearGradient id="paint25_linear_308_151" x1="578.5" y1="1217.5" x2="926.5" y2="531" gradientUnits="userSpaceOnUse">
<stop stop-color="#F50035"/>
<stop offset="1" stop-color="#FF00B3"/>
</linearGradient>
<linearGradient id="paint26_linear_308_151" x1="578.5" y1="1217.5" x2="926.5" y2="531" gradientUnits="userSpaceOnUse">
<stop stop-color="#F50035"/>
<stop offset="1" stop-color="#FF00B3"/>
</linearGradient>
<linearGradient id="paint27_linear_308_151" x1="578.5" y1="1217.5" x2="926.5" y2="531" gradientUnits="userSpaceOnUse">
<stop stop-color="#F50035"/>
<stop offset="1" stop-color="#FF00B3"/>
</linearGradient>
<linearGradient id="paint28_linear_308_151" x1="578.5" y1="1217.5" x2="926.5" y2="531" gradientUnits="userSpaceOnUse">
<stop stop-color="#F50035"/>
<stop offset="1" stop-color="#FF00B3"/>
</linearGradient>
<linearGradient id="paint29_linear_308_151" x1="578.5" y1="1217.5" x2="926.5" y2="531" gradientUnits="userSpaceOnUse">
<stop stop-color="#F50035"/>
<stop offset="1" stop-color="#FF00B3"/>
</linearGradient>
<linearGradient id="paint30_linear_308_151" x1="578.5" y1="1217.5" x2="926.5" y2="531" gradientUnits="userSpaceOnUse">
<stop stop-color="#F50035"/>
<stop offset="1" stop-color="#FF00B3"/>
</linearGradient>
<linearGradient id="paint31_linear_308_151" x1="578.5" y1="1217.5" x2="926.5" y2="531" gradientUnits="userSpaceOnUse">
<stop stop-color="#F50035"/>
<stop offset="1" stop-color="#FF00B3"/>
</linearGradient>
<linearGradient id="paint32_linear_308_151" x1="578.5" y1="1217.5" x2="926.5" y2="531" gradientUnits="userSpaceOnUse">
<stop stop-color="#F50035"/>
<stop offset="1" stop-color="#FF00B3"/>
</linearGradient>
<linearGradient id="paint33_linear_308_151" x1="578.5" y1="1217.5" x2="926.5" y2="531" gradientUnits="userSpaceOnUse">
<stop stop-color="#F50035"/>
<stop offset="1" stop-color="#FF00B3"/>
</linearGradient>
<linearGradient id="paint34_linear_308_151" x1="578.5" y1="1217.5" x2="926.5" y2="531" gradientUnits="userSpaceOnUse">
<stop stop-color="#F50035"/>
<stop offset="1" stop-color="#FF00B3"/>
</linearGradient>
<linearGradient id="paint35_linear_308_151" x1="578.5" y1="1217.5" x2="926.5" y2="531" gradientUnits="userSpaceOnUse">
<stop stop-color="#F50035"/>
<stop offset="1" stop-color="#FF00B3"/>
</linearGradient>
<linearGradient id="paint36_linear_308_151" x1="578.5" y1="1217.5" x2="926.5" y2="531" gradientUnits="userSpaceOnUse">
<stop stop-color="#F50035"/>
<stop offset="1" stop-color="#FF00B3"/>
</linearGradient>
<linearGradient id="paint37_linear_308_151" x1="578.5" y1="1217.5" x2="926.5" y2="531" gradientUnits="userSpaceOnUse">
<stop stop-color="#F50035"/>
<stop offset="1" stop-color="#FF00B3"/>
</linearGradient>
<linearGradient id="paint38_linear_308_151" x1="578.5" y1="1217.5" x2="926.5" y2="531" gradientUnits="userSpaceOnUse">
<stop stop-color="#F50035"/>
<stop offset="1" stop-color="#FF00B3"/>
</linearGradient>
<linearGradient id="paint39_linear_308_151" x1="578.5" y1="1217.5" x2="926.5" y2="531" gradientUnits="userSpaceOnUse">
<stop stop-color="#F50035"/>
<stop offset="1" stop-color="#FF00B3"/>
</linearGradient>
<linearGradient id="paint40_linear_308_151" x1="578.5" y1="1217.5" x2="926.5" y2="531" gradientUnits="userSpaceOnUse">
<stop stop-color="#F50035"/>
<stop offset="1" stop-color="#FF00B3"/>
</linearGradient>
<linearGradient id="paint41_linear_308_151" x1="578.5" y1="1217.5" x2="926.5" y2="531" gradientUnits="userSpaceOnUse">
<stop stop-color="#F50035"/>
<stop offset="1" stop-color="#FF00B3"/>
</linearGradient>
<linearGradient id="paint42_linear_308_151" x1="578.5" y1="1217.5" x2="926.5" y2="531" gradientUnits="userSpaceOnUse">
<stop stop-color="#F50035"/>
<stop offset="1" stop-color="#FF00B3"/>
</linearGradient>
<linearGradient id="paint43_linear_308_151" x1="578.5" y1="1217.5" x2="926.5" y2="531" gradientUnits="userSpaceOnUse">
<stop stop-color="#F50035"/>
<stop offset="1" stop-color="#FF00B3"/>
</linearGradient>
<linearGradient id="paint44_linear_308_151" x1="578.5" y1="1217.5" x2="926.5" y2="531" gradientUnits="userSpaceOnUse">
<stop stop-color="#F50035"/>
<stop offset="1" stop-color="#FF00B3"/>
</linearGradient>
<linearGradient id="paint45_linear_308_151" x1="578.5" y1="1217.5" x2="926.5" y2="531" gradientUnits="userSpaceOnUse">
<stop stop-color="#F50035"/>
<stop offset="1" stop-color="#FF00B3"/>
</linearGradient>
<linearGradient id="paint46_linear_308_151" x1="578.5" y1="1217.5" x2="926.5" y2="531" gradientUnits="userSpaceOnUse">
<stop stop-color="#F50035"/>
<stop offset="1" stop-color="#FF00B3"/>
</linearGradient>
<linearGradient id="paint47_linear_308_151" x1="578.5" y1="1217.5" x2="926.5" y2="531" gradientUnits="userSpaceOnUse">
<stop stop-color="#F50035"/>
<stop offset="1" stop-color="#FF00B3"/>
</linearGradient>
<linearGradient id="paint48_linear_308_151" x1="578.5" y1="1217.5" x2="926.5" y2="531" gradientUnits="userSpaceOnUse">
<stop stop-color="#F50035"/>
<stop offset="1" stop-color="#FF00B3"/>
</linearGradient>
<linearGradient id="paint49_linear_308_151" x1="578.5" y1="1217.5" x2="926.5" y2="531" gradientUnits="userSpaceOnUse">
<stop stop-color="#F50035"/>
<stop offset="1" stop-color="#FF00B3"/>
</linearGradient>
<linearGradient id="paint50_linear_308_151" x1="578.5" y1="1217.5" x2="926.5" y2="531" gradientUnits="userSpaceOnUse">
<stop stop-color="#F50035"/>
<stop offset="1" stop-color="#FF00B3"/>
</linearGradient>
<linearGradient id="paint51_linear_308_151" x1="578.5" y1="1217.5" x2="926.5" y2="531" gradientUnits="userSpaceOnUse">
<stop stop-color="#F50035"/>
<stop offset="1" stop-color="#FF00B3"/>
</linearGradient>
<linearGradient id="paint52_linear_308_151" x1="578.5" y1="1217.5" x2="926.5" y2="531" gradientUnits="userSpaceOnUse">
<stop stop-color="#F50035"/>
<stop offset="1" stop-color="#FF00B3"/>
</linearGradient>
<linearGradient id="paint53_linear_308_151" x1="578.5" y1="1217.5" x2="926.5" y2="531" gradientUnits="userSpaceOnUse">
<stop stop-color="#F50035"/>
<stop offset="1" stop-color="#FF00B3"/>
</linearGradient>
<linearGradient id="paint54_linear_308_151" x1="578.5" y1="1217.5" x2="926.5" y2="531" gradientUnits="userSpaceOnUse">
<stop stop-color="#F50035"/>
<stop offset="1" stop-color="#FF00B3"/>
</linearGradient>
<linearGradient id="paint55_linear_308_151" x1="578.5" y1="1217.5" x2="926.5" y2="531" gradientUnits="userSpaceOnUse">
<stop stop-color="#F50035"/>
<stop offset="1" stop-color="#FF00B3"/>
</linearGradient>
<linearGradient id="paint56_linear_308_151" x1="578.5" y1="1217.5" x2="926.5" y2="531" gradientUnits="userSpaceOnUse">
<stop stop-color="#F50035"/>
<stop offset="1" stop-color="#FF00B3"/>
</linearGradient>
<linearGradient id="paint57_linear_308_151" x1="578.5" y1="1217.5" x2="926.5" y2="531" gradientUnits="userSpaceOnUse">
<stop stop-color="#F50035"/>
<stop offset="1" stop-color="#FF00B3"/>
</linearGradient>
<linearGradient id="paint58_linear_308_151" x1="578.5" y1="1217.5" x2="926.5" y2="531" gradientUnits="userSpaceOnUse">
<stop stop-color="#F50035"/>
<stop offset="1" stop-color="#FF00B3"/>
</linearGradient>
<linearGradient id="paint59_linear_308_151" x1="578.5" y1="1217.5" x2="926.5" y2="531" gradientUnits="userSpaceOnUse">
<stop stop-color="#F50035"/>
<stop offset="1" stop-color="#FF00B3"/>
</linearGradient>
<linearGradient id="paint60_linear_308_151" x1="578.5" y1="1217.5" x2="926.5" y2="531" gradientUnits="userSpaceOnUse">
<stop stop-color="#F50035"/>
<stop offset="1" stop-color="#FF00B3"/>
</linearGradient>
<linearGradient id="paint61_linear_308_151" x1="578.5" y1="1217.5" x2="926.5" y2="531" gradientUnits="userSpaceOnUse">
<stop stop-color="#F50035"/>
<stop offset="1" stop-color="#FF00B3"/>
</linearGradient>
<linearGradient id="paint62_linear_308_151" x1="578.5" y1="1217.5" x2="926.5" y2="531" gradientUnits="userSpaceOnUse">
<stop stop-color="#F50035"/>
<stop offset="1" stop-color="#FF00B3"/>
</linearGradient>
<linearGradient id="paint63_linear_308_151" x1="578.5" y1="1217.5" x2="926.5" y2="531" gradientUnits="userSpaceOnUse">
<stop stop-color="#F50035"/>
<stop offset="1" stop-color="#FF00B3"/>
</linearGradient>
<linearGradient id="paint64_linear_308_151" x1="578.5" y1="1217.5" x2="926.5" y2="531" gradientUnits="userSpaceOnUse">
<stop stop-color="#F50035"/>
<stop offset="1" stop-color="#FF00B3"/>
</linearGradient>
<linearGradient id="paint65_linear_308_151" x1="578.5" y1="1217.5" x2="926.5" y2="531" gradientUnits="userSpaceOnUse">
<stop stop-color="#F50035"/>
<stop offset="1" stop-color="#FF00B3"/>
</linearGradient>
<linearGradient id="paint66_linear_308_151" x1="578.5" y1="1217.5" x2="926.5" y2="531" gradientUnits="userSpaceOnUse">
<stop stop-color="#F50035"/>
<stop offset="1" stop-color="#FF00B3"/>
</linearGradient>
<linearGradient id="paint67_linear_308_151" x1="578.5" y1="1217.5" x2="926.5" y2="531" gradientUnits="userSpaceOnUse">
<stop stop-color="#F50035"/>
<stop offset="1" stop-color="#FF00B3"/>
</linearGradient>
<linearGradient id="paint68_linear_308_151" x1="578.5" y1="1217.5" x2="926.5" y2="531" gradientUnits="userSpaceOnUse">
<stop stop-color="#F50035"/>
<stop offset="1" stop-color="#FF00B3"/>
</linearGradient>
<linearGradient id="paint69_linear_308_151" x1="578.5" y1="1217.5" x2="926.5" y2="531" gradientUnits="userSpaceOnUse">
<stop stop-color="#F50035"/>
<stop offset="1" stop-color="#FF00B3"/>
</linearGradient>
<linearGradient id="paint70_linear_308_151" x1="578.5" y1="1217.5" x2="926.5" y2="531" gradientUnits="userSpaceOnUse">
<stop stop-color="#F50035"/>
<stop offset="1" stop-color="#FF00B3"/>
</linearGradient>
<linearGradient id="paint71_linear_308_151" x1="578.5" y1="1217.5" x2="926.5" y2="531" gradientUnits="userSpaceOnUse">
<stop stop-color="#F50035"/>
<stop offset="1" stop-color="#FF00B3"/>
</linearGradient>
</defs>
</svg>
